<mxfile host="app.diagrams.net" modified="2024-06-03T01:22:04.954Z" agent="Mozilla/5.0 (Windows NT 10.0; Win64; x64) AppleWebKit/537.36 (KHTML, like Gecko) Chrome/125.0.0.0 Safari/537.36" etag="pySIhha_FPcGjdgg_i1q" version="24.4.13" type="device">
  <diagram name="Page-1" id="7DfdLwQE78wTMGV6EMue">
    <mxGraphModel dx="644" dy="515" grid="1" gridSize="10" guides="1" tooltips="1" connect="1" arrows="1" fold="1" page="1" pageScale="1" pageWidth="850" pageHeight="1100" math="0" shadow="0">
      <root>
        <mxCell id="0" />
        <mxCell id="1" parent="0" />
        <mxCell id="1QLu-iCSc-AutEl64-Aw-6" value="System" style="shape=umlActor;verticalLabelPosition=bottom;verticalAlign=top;html=1;outlineConnect=0;" parent="1" vertex="1">
          <mxGeometry x="90" y="225" width="30" height="60" as="geometry" />
        </mxCell>
        <mxCell id="1QLu-iCSc-AutEl64-Aw-7" value="" style="endArrow=none;html=1;rounded=0;entryX=0.007;entryY=0.683;entryDx=0;entryDy=0;entryPerimeter=0;" parent="1" edge="1">
          <mxGeometry width="50" height="50" relative="1" as="geometry">
            <mxPoint x="113" y="245" as="sourcePoint" />
            <mxPoint x="204" y="200" as="targetPoint" />
          </mxGeometry>
        </mxCell>
        <mxCell id="1QLu-iCSc-AutEl64-Aw-8" value="" style="swimlane;startSize=0;" parent="1" vertex="1">
          <mxGeometry x="180" y="115" width="280" height="220" as="geometry" />
        </mxCell>
        <mxCell id="1QLu-iCSc-AutEl64-Aw-9" value="&lt;b&gt;Voucher Winning&lt;/b&gt;" style="text;html=1;align=center;verticalAlign=middle;whiteSpace=wrap;rounded=0;" parent="1QLu-iCSc-AutEl64-Aw-8" vertex="1">
          <mxGeometry width="140" height="30" as="geometry" />
        </mxCell>
        <mxCell id="1QLu-iCSc-AutEl64-Aw-10" value="Creating vouchers" style="ellipse;whiteSpace=wrap;html=1;" parent="1QLu-iCSc-AutEl64-Aw-8" vertex="1">
          <mxGeometry x="20" y="50" width="120" height="80" as="geometry" />
        </mxCell>
      </root>
    </mxGraphModel>
  </diagram>
</mxfile>
